<svg xmlns="http://www.w3.org/2000/svg" viewBox="0 0 475.51 424"><defs><style>.a{fill:#1db4e9;}</style></defs><title>logorgb</title><path class="a" d="M93.24,348.58v-165a5,5,0,0,1,5-5h44.59a5,5,0,0,1,5,5v120a5,5,0,0,0,5,5h0c13.9,0,24.2-16.45,25.21-45.73a5,5,0,0,1,5-4.78h41.24a5,5,0,0,1,5,5.24c-.94,23.39-8.37,47.69-27.3,59.58a5.05,5.05,0,0,0-1.41,7.36c13.31,17,8,41.86,31.81,41.86h3a5,5,0,0,1,5,5v32.5a5,5,0,0,1-3.56,4.79,65.6,65.6,0,0,1-18.4,2.69c-49.67,0-40.35-58.4-70.1-63.47a5.22,5.22,0,0,0-.88-.07H98.23A5,5,0,0,1,93.24,348.58Z" transform="translate(-92.01 -94.55)"/><path class="a" d="M322.49,410.33a5,5,0,0,1-3.93,4.88,92.87,92.87,0,0,1-19.69,1.9c-28.62,0-42.26-15.32-42.26-47.25V263.1a5,5,0,0,1,5-5h44.92a5,5,0,0,1,5,5v96.33c0,6.79,1.85,11.09,7.28,12.33a4.92,4.92,0,0,1,3.7,4.83Z" transform="translate(-92.01 -94.55)"/><path class="a" d="M338.26,348.58v-165a5,5,0,0,1,5-5h44.58a5,5,0,0,1,5,5v120a5,5,0,0,0,5,5h0c13.9,0,24.2-16.45,25.2-45.73a5,5,0,0,1,5-4.78h41.24a5,5,0,0,1,5,5.24c-.95,23.39-8.37,47.69-27.31,59.58a5,5,0,0,0-1.4,7.36c13.3,17,8,41.86,31.8,41.86h3a5,5,0,0,1,5,5v32.5a5,5,0,0,1-3.56,4.79,65.6,65.6,0,0,1-18.4,2.69c-49.66,0-40.35-58.4-70.1-63.47a5.14,5.14,0,0,0-.88-.07H343.26A5,5,0,0,1,338.26,348.58Z" transform="translate(-92.01 -94.55)"/><path class="a" d="M567.52,410.33a5,5,0,0,1-3.94,4.88,92.87,92.87,0,0,1-19.69,1.9c-28.61,0-42.25-15.32-42.25-47.25V263.1a5,5,0,0,1,5-5h44.92a5,5,0,0,1,5,5v96.33c0,6.79,1.84,11.09,7.27,12.33a4.93,4.93,0,0,1,3.71,4.83Z" transform="translate(-92.01 -94.55)"/><path class="a" d="M527.63,241.69c-18.31,0-32.61-13-32.61-31.61s14.3-31.93,32.61-31.93c18,0,32.6,13.36,32.6,31.93S545.59,241.69,527.63,241.69Z" transform="translate(-92.01 -94.55)"/><path class="a" d="M283,241.69c-18.3,0-32.61-13-32.61-31.61s14.31-31.93,32.61-31.93c18,0,32.61,13.36,32.61,31.93S300.94,241.69,283,241.69Z" transform="translate(-92.01 -94.55)"/><path class="a" d="M333.13,157.13l-19.62-19.72a5,5,0,0,1,.14-7.17,134.89,134.89,0,0,1,183.32.47,5,5,0,0,1,.09,7.18L477.35,157.5a5,5,0,0,1-6.93.11,97.12,97.12,0,0,0-130.36-.34A5,5,0,0,1,333.13,157.13Z" transform="translate(-92.01 -94.55)"/><path class="a" d="M401.88,403c0,18.58-14.64,31.94-32.6,31.94-18.3,0-32.61-13.36-32.61-31.94s14.31-31.6,32.61-31.6C387.24,371.4,401.88,384.43,401.88,403Z" transform="translate(-92.01 -94.55)"/><path class="a" d="M157.23,403c0,18.58-14.64,31.94-32.61,31.94C106.32,434.94,92,421.58,92,403s14.31-31.6,32.61-31.6C142.59,371.4,157.23,384.43,157.23,403Z" transform="translate(-92.01 -94.55)"/><path class="a" d="M174.78,456l-19.61,19.71a5,5,0,0,0,.13,7.18,134.88,134.88,0,0,0,183.32-.48,5,5,0,0,0,.09-7.17L319,455.58a5,5,0,0,0-6.93-.11,97.09,97.09,0,0,1-130.36.34A5,5,0,0,0,174.78,456Z" transform="translate(-92.01 -94.55)"/><path class="a" d="M398.49,488.57a7.11,7.11,0,0,1-1.92.22c-2.59,0-4.18-1.62-4.18-5.38V449.55h4.18v33.37c0,1.72.44,2.69,1.92,2.69Z" transform="translate(-92.01 -94.55)"/><path class="a" d="M402.61,475.65c0-8.45,3.85-13.29,9.9-13.29s10,4.84,10,13.29-3.85,13.3-10,13.3S402.61,484.1,402.61,475.65Zm15.78,0c0-6.62-2.31-9.85-5.88-9.85s-5.83,3.23-5.83,9.85,2.31,9.85,5.83,9.85S418.39,482.28,418.39,475.65Z" transform="translate(-92.01 -94.55)"/><path class="a" d="M442.86,483.89s-2,5.06-7,5.06c-4.45,0-9-3.88-9-13.19,0-9.63,4.29-13.4,9.18-13.4a8.22,8.22,0,0,1,7,4v-3.72h3.68v28.75c0,6.62-3.52,10.49-9.4,10.49-6.87,0-9.29-4.95-9.29-4.95l2.25-2.64s1.93,4.15,6.43,4.15c3.47,0,6.11-2.16,6.11-7.05Zm-.28-12.7c0-.54-1.32-5.39-5.72-5.39-3.24,0-5.88,3.23-5.88,9.91s2.8,9.79,5.94,9.79c4.89,0,5.66-6.19,5.66-6.13Z" transform="translate(-92.01 -94.55)"/><path class="a" d="M455.33,457.3a2.88,2.88,0,0,1,0-5.76,2.88,2.88,0,1,1,0,5.76Zm3.91,31.27a7,7,0,0,1-1.87.22c-2.64,0-4.23-1.62-4.23-5.38V462.68h4.17v20.24c0,1.72.44,2.69,1.93,2.69Z" transform="translate(-92.01 -94.55)"/><path class="a" d="M477.05,472a8.65,8.65,0,0,0,.22-2.09c0-2.21-1.32-4.1-4.89-4.1-3.14,0-4.68,1.67-4.68,4.26,0,7.1,13.37,1.4,13.37,11.46,0,4.52-2.81,7.43-8.69,7.43-7.53,0-9.73-5.17-9.73-5.17l2.42-2.64s2.3,4.36,7.09,4.36c3.24,0,4.84-1.45,4.84-3.82,0-6.24-13.36-1.13-13.36-11.52,0-4,2.36-7.8,8.68-7.8,6.66,0,8.75,3.71,8.75,7.21a7.08,7.08,0,0,1-.39,2.42Z" transform="translate(-92.01 -94.55)"/><path class="a" d="M501.85,486.1a7.87,7.87,0,0,1-5.72,2.85c-5.72,0-8-3.34-8-9.58V466h-3.46v-3.29h3.46v-8.07h4.13v8.07h8.52V466h-8.52v13.24c0,4.14,1.32,6.24,4.23,6.24a5.33,5.33,0,0,0,4-2.1Z" transform="translate(-92.01 -94.55)"/><path class="a" d="M508,457.3a2.88,2.88,0,0,1,0-5.76,2.88,2.88,0,1,1,0,5.76Zm3.9,31.27a6.92,6.92,0,0,1-1.87.22c-2.64,0-4.23-1.62-4.23-5.38V462.68h4.18v20.24c0,1.72.44,2.69,1.92,2.69Z" transform="translate(-92.01 -94.55)"/><path class="a" d="M534.72,484.1a9.42,9.42,0,0,1-8.63,4.85c-5.33,0-10.12-3.61-10.12-13.3,0-9,3.74-13.29,10.17-13.29,5.72,0,8.2,3.82,8.2,7.91A10.32,10.32,0,0,1,534,473h-3.8a8.85,8.85,0,0,0,.28-2c0-2.36-.94-5.22-4.35-5.22-3.68,0-6.1,2.8-6.1,9.8,0,8,3.79,9.9,6.6,9.9a6.8,6.8,0,0,0,5.83-3.66Z" transform="translate(-92.01 -94.55)"/><path class="a" d="M552.48,472a8.65,8.65,0,0,0,.22-2.09c0-2.21-1.32-4.1-4.9-4.1-3.13,0-4.67,1.67-4.67,4.26,0,7.1,13.36,1.4,13.36,11.46,0,4.52-2.8,7.43-8.69,7.43-7.53,0-9.73-5.17-9.73-5.17l2.42-2.64s2.31,4.36,7.09,4.36c3.25,0,4.84-1.45,4.84-3.82,0-6.24-13.36-1.13-13.36-11.52,0-4,2.37-7.8,8.69-7.8,6.65,0,8.74,3.71,8.74,7.21a7.24,7.24,0,0,1-.38,2.42Z" transform="translate(-92.01 -94.55)"/></svg>